<?xml version="1.0" encoding="UTF-8"?> <svg xmlns="http://www.w3.org/2000/svg" width="498" height="308" viewBox="0 0 498 308" fill="none"> <path d="M473 307.8H405.8C397.8 307.8 389.8 303 385 296.6L378.6 286.2C374.6 281.4 337.8 239 315.4 225.4C306.6 220.6 303.4 221.4 303.4 221.4C303.4 221.4 302.6 223.8 302.6 224.6V267C302.6 289.4 284.2 307 262.6 307H246.6C242.6 307 153 305.4 81.8 199C25.8 115.8 7.40001 61.4 1.00001 30.2C-0.59999 23 1.80001 15.8 5.80001 10.2C10.6 4.59997 17 1.39998 24.2 1.39998H81C91.4 1.39998 100.2 7.79997 103.4 18.2C109.8 36.6 125.8 83.8 145 114.2C173 160.6 184.2 164.6 187.4 164.6C189.8 160.6 189 144.6 189 134.2V109.4C189 89.4 189.8 62.2 181.8 49.4L165.8 26.2C162.6 21.4 161.8 15 165 9.39998C167.4 3.79998 173 0.599976 179.4 0.599976H270.6C284.2 0.599976 294.6 11.8 294.6 24.6V139.8C294.6 140.6 295.4 141.4 295.4 141.4C295.4 141.4 298.6 141.4 307.4 133.4C325.8 115 349 80.6 372.2 33.4L380.2 15C384.2 6.19998 393 0.599976 402.6 0.599976H461.8C469.8 0.599976 477 4.59998 481.8 11C486.6 17.4 487.4 26.2 484.2 33.4L477.8 50.2V51C477 52.6 455.4 95 433 126.2C415.4 150.2 408.2 161.4 409.8 165.4C411.4 167.8 421.8 179.8 432.2 189.4C451.4 209.4 475.4 235 484.2 251.8C488.2 259 492.2 265.4 494.6 271C498.6 278.2 498.6 287 493.8 295C489 303.8 481.8 307.8 473 307.8ZM305 205.4C310.6 205.4 317 207.8 324.2 211.8C350.6 227 390.6 274.2 392.2 276.6L393 277.4L399.4 287.8C401 290.2 403.4 291.8 406.6 291.8H473C477 291.8 479.4 289.4 480.2 287.8C481 287 482.6 283.8 480.2 279.8C477 274.2 473.8 267.8 469.8 260.6C461.8 246.2 437.8 220.6 420.2 201.4C402.6 182.2 396.2 175.8 394.6 171.8C389.8 159.8 397 150.2 420.2 118.2C441 89.4 461 50.2 463.4 45.4L469.8 28.6C470.6 26.2 470.6 23 469 21.4C467.4 19 465 18.2 462.6 18.2H403.4C400.2 18.2 397 19.8 396.2 23L388.2 42.2C370.6 76.6 345 122.2 320.2 147C309.8 157.4 300.2 160.6 292.2 158.2C282.6 155 280.2 144.6 280.2 143.8V26.2C280.2 21.4 276.2 18.2 272.2 18.2H179.4L195.4 41.4C205.8 58.2 205.8 87.8 205 111V134.2C205.8 156.6 205.8 177.4 191.4 180.6C175.4 183.8 158.6 167 131.4 123C113 91.8 97 47.8 89 23.8C88.2 20.6 85 18.2 81 18.2H25C22.6 18.2 20.2 19 18.6 21.4C17 23 17 25.4 17 27.8C22.6 57.4 41 109.4 95.4 191C161.8 290.2 245.8 291.8 246.6 291.8H262.6C276.2 291.8 286.6 280.6 286.6 267.8V225.4C286.6 224.6 286.6 213.4 295.4 207.8C298.6 206.2 301.8 205.4 305 205.4Z" fill="white"></path> </svg> 