<?xml version="1.0" encoding="UTF-8"?> <svg xmlns="http://www.w3.org/2000/svg" width="223" height="72" viewBox="0 0 223 72" fill="none"> <path d="M80.8372 59.1173H77.2708C77.1953 59.1173 77.1387 59.0607 77.1387 58.9664L77.1765 37.3796C77.1765 37.3042 77.2331 37.2476 77.3274 37.2476H80.8183C80.9126 37.2476 80.9692 37.2853 80.9692 37.3796L80.9315 45.9275H85.6489V37.3796C85.6489 37.3042 85.6866 37.2476 85.781 37.2476H89.2718C89.3662 37.2476 89.4228 37.2853 89.4228 37.3796L89.4794 58.9664C89.4794 59.0607 89.4228 59.1173 89.3284 59.1173H85.8187C85.7244 59.1173 85.6678 59.0607 85.6678 58.9664V49.7203H80.9504V58.9664C80.9504 59.0796 80.9126 59.1173 80.8372 59.1173Z" fill="#F9F9F9"></path> <path d="M95.7818 59.1173H92.2155C92.1211 59.1173 92.0645 59.0607 92.0645 58.9664L92.1023 37.3796C92.1023 37.3042 92.14 37.2476 92.2343 37.2476H95.7629C95.8384 37.2476 95.895 37.2853 95.895 37.3796L95.9328 58.9664C95.895 59.0796 95.8573 59.1173 95.7818 59.1173Z" fill="#F9F9F9"></path> <path d="M102.349 59.1173H98.7822C98.7067 59.1173 98.6501 59.0607 98.6501 58.9664L98.7067 37.3796C98.7067 37.3042 98.7444 37.2476 98.8388 37.2476H105.198C106.33 37.2476 107.368 37.5306 108.33 38.0778C109.274 38.625 110.047 39.3798 110.613 40.3044C111.179 41.229 111.462 42.2857 111.462 43.4745C111.462 44.2481 111.349 44.9463 111.104 45.569C110.878 46.1917 110.594 46.7201 110.274 47.1541C109.953 47.5881 109.67 47.9088 109.425 48.0975C110.557 49.3618 111.123 50.8336 111.123 52.5319L111.161 58.9852C111.161 59.0796 111.104 59.1362 111.01 59.1362H107.443C107.368 59.1362 107.311 59.0985 107.311 59.0418V52.5319C107.311 51.7771 107.047 51.1167 106.519 50.5694C105.99 50.0222 105.33 49.7392 104.556 49.7392H102.481L102.443 58.9852C102.462 59.0796 102.424 59.1173 102.349 59.1173ZM105.198 41.0215H102.499V45.9653H105.198C105.839 45.9653 106.424 45.72 106.915 45.2482C107.424 44.7765 107.67 44.1727 107.67 43.4745C107.67 42.8141 107.424 42.2291 106.934 41.7574C106.462 41.2668 105.877 41.0215 105.198 41.0215Z" fill="#F9F9F9"></path> <path d="M124.086 59.1173H113.934C113.859 59.1173 113.802 59.0607 113.802 58.9664L113.84 37.3796C113.84 37.3042 113.878 37.2476 113.972 37.2476H124.067C124.143 37.2476 124.199 37.3042 124.199 37.3985V40.9082C124.199 40.9837 124.161 41.0403 124.067 41.0403H117.614V45.9464H124.067C124.143 45.9464 124.199 45.9841 124.199 46.0785L124.237 49.6448C124.237 49.7203 124.199 49.7769 124.105 49.7769H117.633V55.2679H124.105C124.18 55.2679 124.237 55.3246 124.237 55.4189V59.0041C124.218 59.0796 124.161 59.1173 124.086 59.1173Z" fill="#F9F9F9"></path> <path d="M132.351 59.4387C131.238 59.4387 130.2 59.1557 129.275 58.5707C128.351 58.0046 127.596 57.231 127.049 56.2686C126.483 55.3063 126.218 54.2685 126.218 53.1174V51.6833C126.218 51.5701 126.275 51.5135 126.369 51.5135H129.898C129.973 51.5135 130.03 51.5701 130.03 51.6833V53.1174C130.03 53.7967 130.256 54.4006 130.728 54.8912C131.181 55.3818 131.747 55.6271 132.389 55.6271C133.049 55.6271 133.596 55.3818 134.068 54.8723C134.54 54.3628 134.766 53.7779 134.766 53.1174C134.766 52.3438 134.257 51.6833 133.257 51.0984C133.087 51.004 132.879 50.872 132.615 50.721C132.351 50.57 132.049 50.4002 131.69 50.2115C131.332 50.0228 130.992 49.8341 130.653 49.6454C130.313 49.4567 129.992 49.268 129.671 49.0982C128.52 48.4189 127.671 47.5698 127.124 46.5508C126.558 45.5319 126.294 44.3808 126.294 43.1166C126.294 41.9467 126.577 40.89 127.162 39.9465C127.728 39.0219 128.483 38.286 129.407 37.7199C130.332 37.1727 131.332 36.8896 132.426 36.8896C133.54 36.8896 134.559 37.1727 135.502 37.7199C136.427 38.286 137.182 39.0219 137.729 39.9654C138.295 40.89 138.559 41.9467 138.559 43.0977V45.6828C138.559 45.7583 138.521 45.8149 138.427 45.8149H134.898C134.823 45.8149 134.766 45.7772 134.766 45.6828L134.728 43.0977C134.728 42.3618 134.502 41.758 134.03 41.3051C133.577 40.8522 133.03 40.6069 132.389 40.6069C131.747 40.6069 131.2 40.8522 130.728 41.3428C130.275 41.8335 130.03 42.4184 130.03 43.0977C130.03 43.777 130.181 44.362 130.464 44.8148C130.747 45.2677 131.294 45.7206 132.068 46.1357C132.143 46.1734 132.332 46.2867 132.634 46.4376C132.936 46.6074 133.257 46.7773 133.615 46.9848C133.974 47.1924 134.313 47.3622 134.596 47.5132C134.898 47.6641 135.068 47.7585 135.125 47.7962C136.163 48.3812 136.993 49.0982 137.597 49.9473C138.2 50.7965 138.502 51.8343 138.502 53.0797C138.502 54.2685 138.219 55.344 137.672 56.3064C137.106 57.2498 136.37 58.0046 135.427 58.5707C134.521 59.1557 133.483 59.4387 132.351 59.4387Z" fill="#F9F9F9"></path> <path d="M154.202 59.4387C153.088 59.4387 152.051 59.1557 151.126 58.5707C150.201 58.0046 149.447 57.231 148.899 56.2686C148.333 55.3063 148.069 54.2685 148.069 53.1174V51.6833C148.069 51.5701 148.126 51.5135 148.22 51.5135H151.749C151.824 51.5135 151.881 51.5701 151.881 51.6833V53.1174C151.881 53.7967 152.107 54.4006 152.579 54.8912C153.032 55.3818 153.598 55.6271 154.239 55.6271C154.9 55.6271 155.447 55.3818 155.919 54.8723C156.372 54.3628 156.617 53.7779 156.617 53.1174C156.617 52.3438 156.108 51.6833 155.107 51.0984C154.938 51.004 154.73 50.872 154.466 50.721C154.202 50.57 153.9 50.4002 153.541 50.2115C153.183 50.0228 152.843 49.8341 152.503 49.6454C152.164 49.4567 151.843 49.268 151.522 49.0982C150.371 48.4189 149.522 47.5698 148.975 46.5508C148.409 45.5319 148.145 44.3808 148.145 43.1166C148.145 41.9467 148.428 40.89 149.013 39.9465C149.579 39.0219 150.333 38.286 151.258 37.7199C152.183 37.1727 153.183 36.8896 154.277 36.8896C155.39 36.8896 156.409 37.1727 157.353 37.7199C158.278 38.286 159.032 39.0219 159.58 39.9654C160.146 40.89 160.41 41.9467 160.41 43.0977V45.6828C160.41 45.7583 160.372 45.8149 160.278 45.8149H156.749C156.674 45.8149 156.617 45.7772 156.617 45.6828L156.579 43.0977C156.579 42.3618 156.353 41.758 155.881 41.3051C155.428 40.8522 154.881 40.6069 154.239 40.6069C153.598 40.6069 153.051 40.8522 152.579 41.3428C152.126 41.8335 151.881 42.4184 151.881 43.0977C151.881 43.777 152.032 44.362 152.315 44.8148C152.598 45.2677 153.145 45.7206 153.919 46.1357C153.994 46.1734 154.183 46.2867 154.485 46.4376C154.787 46.6074 155.107 46.7773 155.466 46.9848C155.824 47.1924 156.164 47.3622 156.447 47.5132C156.749 47.6641 156.919 47.7585 156.976 47.7962C158.013 48.3812 158.844 49.0982 159.447 49.9473C160.051 50.7965 160.353 51.8343 160.353 53.0797C160.353 54.2685 160.07 55.344 159.523 56.3064C158.957 57.2498 158.221 58.0046 157.277 58.5707C156.353 59.1557 155.334 59.4387 154.202 59.4387Z" fill="#F9F9F9"></path> <path d="M169.241 59.1173H165.693C165.599 59.1173 165.561 59.0607 165.561 58.9664V41.0403H161.485C161.391 41.0403 161.334 40.9837 161.334 40.8894L161.372 37.3796C161.372 37.3042 161.41 37.2476 161.504 37.2476H173.449C173.562 37.2476 173.618 37.2853 173.618 37.3796V40.8894C173.618 40.9837 173.581 41.0403 173.486 41.0403H169.354L169.392 58.9664C169.373 59.0796 169.335 59.1173 169.241 59.1173Z" fill="#F9F9F9"></path> <path d="M180.883 59.4381C179.77 59.4381 178.751 59.1551 177.808 58.5701C176.864 58.004 176.109 57.2304 175.562 56.268C174.996 55.3057 174.732 54.249 174.732 53.098L174.788 37.3796C174.788 37.3042 174.826 37.2476 174.921 37.2476H178.449C178.525 37.2476 178.581 37.2853 178.581 37.3796V53.098C178.581 53.7961 178.808 54.4 179.261 54.9094C179.713 55.4 180.261 55.6453 180.902 55.6453C181.582 55.6453 182.148 55.4 182.582 54.9094C183.034 54.4188 183.261 53.815 183.261 53.098V37.3796C183.261 37.3042 183.299 37.2476 183.393 37.2476H186.922C186.997 37.2476 187.054 37.2853 187.054 37.3796L187.11 53.098C187.11 54.249 186.827 55.3246 186.28 56.2869C185.714 57.2492 184.978 58.004 184.035 58.589C183.091 59.1362 182.053 59.4381 180.883 59.4381Z" fill="#F9F9F9"></path> <path d="M195.337 59.0989L189.714 59.1366C189.62 59.1366 189.563 59.08 189.563 58.9857L189.62 37.3989C189.62 37.3235 189.658 37.2669 189.752 37.2669L195.62 37.2291C196.79 37.1914 197.847 37.4556 198.79 38.0216C199.734 38.5877 200.508 39.3425 201.074 40.3049C201.64 41.2672 201.923 42.3239 201.923 43.4749V52.4946C201.923 53.7022 201.64 54.8155 201.055 55.8156C200.47 56.8157 199.677 57.5893 198.696 58.1931C197.696 58.7592 196.583 59.08 195.337 59.0989ZM195.62 40.9842L193.431 41.0219L193.394 55.2684H195.337C196.111 55.2684 196.771 55.0042 197.3 54.457C197.828 53.9098 198.092 53.2682 198.092 52.5134V43.4561C198.092 42.7956 197.847 42.2107 197.356 41.7201C196.885 41.2106 196.3 40.9653 195.62 40.9842Z" fill="#F9F9F9"></path> <path d="M208.093 59.1173H204.527C204.432 59.1173 204.376 59.0607 204.376 58.9664L204.413 37.3796C204.413 37.3042 204.451 37.2476 204.546 37.2476H208.074C208.15 37.2476 208.206 37.2853 208.206 37.3796L208.244 58.9664C208.225 59.0796 208.187 59.1173 208.093 59.1173Z" fill="#F9F9F9"></path> <path d="M216.792 59.4387C215.679 59.4387 214.641 59.1557 213.716 58.5707C212.792 58.0046 212.037 57.231 211.471 56.2686C210.905 55.3063 210.622 54.2685 210.622 53.1174L210.659 43.1543C210.659 41.9844 210.942 40.9466 211.509 40.0031C212.056 39.0596 212.811 38.3049 213.754 37.7388C214.698 37.1727 215.716 36.8896 216.83 36.8896C217.981 36.8896 219 37.1727 219.905 37.7388C220.83 38.3049 221.566 39.0596 222.132 40.0031C222.698 40.9466 222.962 42.0033 222.962 43.1543L223 53.1174C223 54.2685 222.717 55.3063 222.17 56.2686C221.604 57.231 220.868 58.0046 219.924 58.5707C218.962 59.1368 217.924 59.4387 216.792 59.4387ZM216.792 55.6459C217.434 55.6459 217.981 55.3818 218.453 54.8723C218.924 54.3628 219.151 53.7779 219.151 53.1363L219.113 43.1732C219.113 42.475 218.887 41.8901 218.453 41.3995C218.019 40.9277 217.452 40.6824 216.773 40.6824C216.132 40.6824 215.584 40.9089 215.113 41.3806C214.641 41.8523 214.414 42.4373 214.414 43.1543V53.1174C214.414 53.7967 214.641 54.4006 215.113 54.8912C215.603 55.4006 216.15 55.6459 216.792 55.6459Z" fill="#F9F9F9"></path> <path d="M62.9299 23.8706C61.2316 23.4177 59.4202 23.7574 57.9295 24.6631L37.456 37.0227C35.8333 38.0039 34.8521 39.7587 34.8521 41.6457V53.7788C34.8521 55.6469 35.8521 57.4017 37.456 58.3641L58.1182 70.667C59.1182 71.252 60.2315 71.5539 61.3448 71.5539C62.9488 71.5539 64.5527 70.9501 65.7792 69.7235C67.0246 68.497 67.6473 66.7799 67.6473 65.025V29.9843C67.6473 27.1728 65.7792 24.6254 62.9299 23.8706ZM44.9284 45.4951C44.9284 44.7403 45.3246 44.061 45.9662 43.6647L54.3443 38.6077C55.7595 37.7586 57.5709 38.7775 57.5709 40.4381V55.1751C57.5709 56.6847 55.9293 57.6093 54.6462 56.8357L45.9851 51.6843C45.3435 51.3069 44.9472 50.6087 44.9472 49.8539V45.4951H44.9284Z" fill="#F9F9F9"></path> <path d="M4.71738 47.6833C6.41564 48.1361 8.22711 47.7965 9.7178 46.8907L30.1912 34.5312C31.814 33.55 32.7952 31.7951 32.7952 29.9082V17.7751C32.7952 15.907 31.7951 14.1521 30.1912 13.1898L9.52911 0.886869C8.52902 0.301915 7.41572 0 6.30242 0C4.69851 0 3.0946 0.603827 1.86808 1.83035C0.622693 3.05686 0 4.77399 0 6.52885V41.5695C0 44.3811 1.86808 46.9285 4.71738 47.6833ZM22.7189 26.0588C22.7189 26.8136 22.3226 27.4929 21.6811 27.8891L13.3219 32.9462C11.9067 33.7953 10.0952 32.7763 10.0952 31.1158V16.3787C10.0952 14.8692 11.7368 13.9446 13.02 14.7182L21.6811 19.8696C22.3226 20.247 22.7189 20.9452 22.7189 21.6999V26.0588Z" fill="#F9F9F9"></path> </svg> 